<svg width="18" height="18" viewBox="0 0 18 18" fill="none" xmlns="http://www.w3.org/2000/svg">
<path d="M3.19278 13.5375L6.06602 12.8196L6.23179 12.1564C5.16954 12.0125 4.13929 11.6902 3.18456 11.2032C3.07814 11.1394 3.01022 11.0272 3.00305 10.9034C2.99552 10.7796 3.04899 10.6598 3.14631 10.5827C3.15981 10.5737 4.50006 9.46762 4.50006 5.63532C4.50006 2.40326 5.2568 0.764386 6.75006 0.764386H6.97506C7.49312 0.208152 8.24434 -0.0698417 9.00005 0.0150247C10.4093 0.0150247 13.5 1.4306 13.5 5.63532C13.5 9.46762 14.8403 10.5737 14.85 10.5812C15.0159 10.7051 15.0498 10.9399 14.9257 11.1057C14.8966 11.1445 14.8602 11.1774 14.8185 11.2024C13.8646 11.694 12.833 12.0175 11.7691 12.1586L11.9348 12.8203L14.8073 13.5382C16.6854 14.0051 18.0028 15.6915 18 17.6253C18 17.8322 17.8321 18 17.625 18H0.375017C0.167912 18 5.72205e-06 17.8322 5.72205e-06 17.6253C-0.00305367 15.6913 1.31439 14.0044 3.19278 13.5375Z" fill="#C10016"/>
</svg>
